<svg xmlns="http://www.w3.org/2000/svg" viewBox="0 0 500 500">
  <path d="M 0 0 L 500 0 L 500 500 L 0 500 Z M 250 65.38 C 194.772 65.38 150 110.152 150 165.38 C 150 220.608 194.772 265.38 250 265.38 C 305.228 265.38 350 220.608 350 165.38 C 350 110.152 305.228 65.38 250 65.38 Z M 421.574 354.01 C 421.574 280.468 250 286.768 250 286.768 C 250 286.768 78.426 280.468 78.426 354.01 C 78.426 423.312 155.242 479.492 250 479.492 C 344.758 479.492 421.574 423.312 421.574 354.01 Z" fill="#c7c8c8"></path>
</svg>