<?xml version="1.0" encoding="UTF-8" standalone="no"?>
<!--
https://en.m.wikipedia.org/wiki/File:Remembrance_Poppy.svg

This file is licensed under the Creative Commons Attribution-Share Alike 4.0 International license.
https://creativecommons.org/licenses/by-sa/4.0/deed.en
-->
<!-- Created with Inkscape (http://www.inkscape.org/) -->
<svg
   xmlns:dc="http://purl.org/dc/elements/1.1/"
   xmlns:cc="http://creativecommons.org/ns#"
   xmlns:rdf="http://www.w3.org/1999/02/22-rdf-syntax-ns#"
   xmlns:svg="http://www.w3.org/2000/svg"
   xmlns="http://www.w3.org/2000/svg"
   xmlns:sodipodi="http://sodipodi.sourceforge.net/DTD/sodipodi-0.dtd"
   xmlns:inkscape="http://www.inkscape.org/namespaces/inkscape"
   width="127.0666mm"
   height="149.92989mm"
   viewBox="0 0 127.0666 149.92989"
   version="1.1"
   id="svg8"
   inkscape:version="0.92.5 (2060ec1f9f, 2020-04-08)"
   sodipodi:docname="amapola-del-recuerdo.svg">
  <title
     id="title995">Remembrance Poppy</title>
  <defs
     id="defs2">
    <path
       transform="scale(-1)"
       style="opacity:1;vector-effect:none;fill:#eb5a50;fill-opacity:1;fill-rule:nonzero;stroke:#eb5a50;stroke-width:0.37348595;stroke-linecap:butt;stroke-linejoin:round;stroke-miterlimit:4;stroke-dasharray:none;stroke-dashoffset:9.19999981;stroke-opacity:1;paint-order:normal"
       d="m -108.61451,-161.48848 c 0,2.31127 -1.23305,4.44697 -3.23467,5.60261 -2.00162,1.15564 -4.46772,1.15564 -6.46934,0 -2.00162,-1.15564 -3.23466,-3.29134 -3.23466,-5.60261"
       id="path1753-9"
       inkscape:connector-curvature="0"
       sodipodi:nodetypes="cscc" />
    <path
       transform="scale(-1)"
       style="opacity:1;vector-effect:none;fill:#eb5a50;fill-opacity:1;fill-rule:nonzero;stroke:#eb5a50;stroke-width:0.37348595;stroke-linecap:butt;stroke-linejoin:round;stroke-miterlimit:4;stroke-dasharray:none;stroke-dashoffset:9.19999981;stroke-opacity:1;paint-order:normal"
       d="m -108.61451,-161.48848 c 0,2.31127 -1.23305,4.44697 -3.23467,5.60261 -2.00162,1.15564 -4.46772,1.15564 -6.46934,0 -2.00162,-1.15564 -3.23466,-3.29134 -3.23466,-5.60261"
       id="path1753-6"
       inkscape:connector-curvature="0"
       sodipodi:nodetypes="cscc" />
  </defs>
  <sodipodi:namedview
     id="base"
     pagecolor="#ffffff"
     bordercolor="#666666"
     borderopacity="1.0"
     inkscape:pageopacity="0.0"
     inkscape:pageshadow="2"
     inkscape:zoom="1.1962801"
     inkscape:cx="251.01014"
     inkscape:cy="241.57104"
     inkscape:document-units="mm"
     inkscape:current-layer="layer1"
     showgrid="false"
     inkscape:window-width="1848"
     inkscape:window-height="1016"
     inkscape:window-x="72"
     inkscape:window-y="27"
     inkscape:window-maximized="1"
     inkscape:object-nodes="true"
     inkscape:object-paths="true"
     inkscape:snap-object-midpoints="true"
     inkscape:snap-nodes="false"
     fit-margin-top="0"
     fit-margin-left="0"
     fit-margin-right="0"
     fit-margin-bottom="0"
     inkscape:snap-global="false" />
  <metadata
     id="metadata5">
    <rdf:RDF>
      <cc:Work
         rdf:about="">
        <dc:format>image/svg+xml</dc:format>
        <dc:type
           rdf:resource="http://purl.org/dc/dcmitype/StillImage" />
        <dc:title>Remembrance Poppy</dc:title>
        <dc:date>2021-11-10</dc:date>
        <dc:creator>
          <cc:Agent>
            <dc:title>Daniel Capilla</dc:title>
          </cc:Agent>
        </dc:creator>
        <dc:rights>
          <cc:Agent>
            <dc:title>CC BY-SA 4.0</dc:title>
          </cc:Agent>
        </dc:rights>
        <dc:language>en</dc:language>
        <dc:subject>
          <rdf:Bag>
            <rdf:li>Remembrance Day</rdf:li>
            <rdf:li>Remembrance Poppies</rdf:li>
            <rdf:li>Military history</rdf:li>
            <rdf:li>Commemorations</rdf:li>
          </rdf:Bag>
        </dc:subject>
        <dc:description>A remembrance poppy. The remembrance poppy is an artificial flower worn in some countries to commemorate their military personnel who died in war. </dc:description>
        <cc:license
           rdf:resource="http://creativecommons.org/licenses/by-sa/4.0/" />
      </cc:Work>
      <cc:License
         rdf:about="http://creativecommons.org/licenses/by-sa/4.0/">
        <cc:permits
           rdf:resource="http://creativecommons.org/ns#Reproduction" />
        <cc:permits
           rdf:resource="http://creativecommons.org/ns#Distribution" />
        <cc:requires
           rdf:resource="http://creativecommons.org/ns#Notice" />
        <cc:requires
           rdf:resource="http://creativecommons.org/ns#Attribution" />
        <cc:permits
           rdf:resource="http://creativecommons.org/ns#DerivativeWorks" />
        <cc:requires
           rdf:resource="http://creativecommons.org/ns#ShareAlike" />
      </cc:License>
    </rdf:RDF>
  </metadata>
  <g
     inkscape:label="Capa 1"
     inkscape:groupmode="layer"
     id="layer1"
     transform="translate(-39.857044,-70.290274)"
     style="display:inline">
    <g
       id="g2353">
      <path
         sodipodi:nodetypes="saaaaaaaaaaaaaaaaaaaaasss"
         inkscape:connector-curvature="0"
         id="path895"
         d="m 71.734412,157.5692 c -5.805655,-2.37195 -14.684583,-6.89818 -13.539275,-13.06422 0.816411,-4.39534 11.765522,-0.79374 12.35162,-5.22568 0.421524,-3.18746 -5.8846,-3.21954 -7.600998,-5.93828 -0.779376,-1.23452 -0.03051,-3.14164 -0.950124,-4.27556 -1.807864,-2.22915 -5.798942,-1.54367 -7.83853,-3.56297 -0.931365,-0.9221 -0.890062,-2.50433 -1.662715,-3.56297 -2.543396,-3.4848 -9.54915,-4.47467 -9.501249,-8.78865 0.03052,-2.74831 5.897258,-2.72889 6.175812,-5.46322 0.521589,-5.12001 -10.111824,-7.27547 -9.263716,-12.351622 0.44151,-2.64255 5.655821,-2.02554 6.650874,-4.51309 2.497475,-6.24347 -9.531652,-15.520816 -4.275564,-19.715083 5.260459,-4.197755 11.587978,9.165763 18.289902,8.551123 2.713041,-0.24882 3.955216,-5.145521 6.650871,-4.750625 4.857768,0.711632 4.191235,10.786045 9.026186,11.639025 2.487813,0.4389 3.938892,-4.5469 6.413341,-4.03803 4.237889,0.87153 4.380947,7.55461 7.363466,10.6889 1.168077,1.22752 3.24429,1.59085 4.038031,3.08791 1.300235,2.45234 -1.026774,5.979252 0.475061,8.313582 0.919807,1.42968 3.37108,1.11602 4.513093,2.37532 3.101412,3.41992 0.609378,12.76062 5.225682,12.82668 5.88412,0.0842 1.24173,-16.23018 7.12594,-16.15211 5.21922,0.0692 5.1112,9.33566 5.93828,14.4894 2.10638,13.12535 6.94572,30.75844 -2.81741,39.78024 -10.47557,9.68014 -29.584727,5.04447 -42.788578,-0.35007 z"
         style="fill:#849663;fill-opacity:1;stroke:none;stroke-width:0.26458332px;stroke-linecap:butt;stroke-linejoin:miter;stroke-opacity:1" />
      <g
         id="g2767">
        <path
           style="opacity:1;vector-effect:none;fill:#eb5a50;fill-opacity:1;fill-rule:nonzero;stroke:#eb5a50;stroke-width:0.30599999;stroke-linecap:butt;stroke-linejoin:round;stroke-miterlimit:4;stroke-dasharray:none;stroke-dashoffset:9.19999981;stroke-opacity:1;paint-order:normal"
           d="m 105.63871,112.53985 c -7.542485,1.49444 -15.751815,5.05091 -20.031173,11.43914 -4.07421,6.082 -2.814873,21.78038 -2.814873,21.78038 0,0 -13.228555,2.39393 -17.676529,6.8891 -3.969676,4.0118 -5.439767,10.22198 -5.981449,15.83976 -0.578887,6.00363 0.897375,12.19919 3.040156,17.8372 2.239039,5.89129 5.672899,11.46557 10.004506,16.04352 5.361586,5.66651 11.92788,10.49751 19.143758,13.4618 7.77244,3.19293 16.463194,4.53058 24.858704,4.18274 8.4695,-0.3509 17.33124,-1.99043 24.64277,-6.2796 5.05933,-2.96797 9.82481,-7.36319 12.11329,-12.76398 1.73157,-4.08648 1.72548,-9.01925 0.56361,-13.30267 -0.90267,-3.32785 -5.6003,-8.69718 -5.6003,-8.69718 0,0 6.09476,-3.21625 8.43129,-5.66735 4.58567,-4.81051 9.56837,-10.45674 10.31847,-17.06027 0.82954,-7.30293 -2.78961,-14.84536 -6.88892,-20.94589 -5.33934,-7.94593 -13.11394,-14.74378 -21.86894,-18.61629 -9.91322,-4.38481 -21.6214,-6.24718 -32.25437,-4.14041 z"
           id="path877"
           inkscape:connector-curvature="0"
           sodipodi:nodetypes="aacaaaaaaaaacaaaaa" />
        <path
           style="opacity:1;vector-effect:none;fill:#e4463f;fill-opacity:1;fill-rule:nonzero;stroke:none;stroke-width:0.51267499;stroke-linecap:butt;stroke-linejoin:round;stroke-miterlimit:4;stroke-dasharray:none;stroke-dashoffset:9.19999981;stroke-opacity:1;paint-order:normal"
           d="m 117.27929,111.73064 -0.4222,27.50375 c 0.84924,-10e-4 1.70762,0.0395 2.56884,0.11989 l 3.11402,-27.11153 c -1.31906,-0.19202 -2.64364,-0.33717 -3.96928,-0.43356 -0.0488,-0.004 -0.0975,-0.005 -0.14624,-0.009 -0.38166,-0.0267 -0.76345,-0.0512 -1.14514,-0.0698 z m -6.1154,0.0677 c -1.6764,0.12219 -3.33912,0.33209 -4.97747,0.6351 l 5.34128,27.42417 c 0.78679,-0.19756 1.57982,-0.35018 2.37556,-0.447 z m 17.41136,1.65416 -6.16863,26.33844 c 0.81714,0.16425 1.62912,0.36539 2.43086,0.60048 l 8.60774,-25.47131 c -1.59446,-0.55567 -3.22098,-1.04629 -4.86997,-1.46761 z m -27.78281,0.32711 c -0.0136,0.004 -0.0267,0.009 -0.0403,0.0134 -0.004,0.001 -0.008,0.002 -0.0119,0.004 -0.44781,0.14199 -0.893712,0.29422 -1.338424,0.45114 -0.0631,0.0223 -0.126047,0.0451 -0.189124,0.0677 -0.169095,0.0606 -0.339037,0.11851 -0.507471,0.18138 -0.131656,0.0491 -0.262043,0.10242 -0.39325,0.15296 -0.547714,0.21111 -1.092147,0.43123 -1.629357,0.66818 l 10.386956,26.19065 c 0.62992,-0.30965 1.27024,-0.59113 1.91823,-0.84181 l -8.19536,-26.88673 z m 37.92532,3.26699 -11.2236,24.2719 c 0.73782,0.29988 1.45955,0.63105 2.16059,0.99322 l 13.28396,-23.02495 c -1.37472,-0.81925 -2.78302,-1.56985 -4.22042,-2.24017 z m -46.66382,0.75912 c -0.166396,0.10845 -0.331443,0.21856 -0.495035,0.33021 -1.022959,0.69826 -1.988952,1.46002 -2.882,2.2872 -0.123693,0.11456 -0.246619,0.22965 -0.367427,0.34675 l 14.711762,23.21047 c 0.6052,-0.44705 1.22682,-0.8708 1.86449,-1.26504 z m 55.78938,4.80901 -15.64196,21.21679 c 0.72779,0.49942 1.421,1.03654 2.07016,1.61282 l 17.55502,-19.45514 h -5.3e-4 c -0.008,-0.007 -0.0163,-0.0147 -0.0243,-0.0222 -1.26529,-1.18019 -2.5868,-2.30132 -3.9584,-3.35225 z m -63.087117,2.95899 c -0.691039,1.56648 -1.17012,3.46753 -1.495002,5.47512 l 15.911698,16.36024 c 0.544539,-0.58251 1.116171,-1.14567 1.713071,-1.68413 z m 71.353277,4.89738 -19.6815,17.23099 c 0.54782,0.68452 1.03629,1.41211 1.47486,2.17196 l 21.39352,-15.27349 c -0.98721,-1.41912 -2.05287,-2.7986 -3.18688,-4.12946 z m -73.442559,7.09827 c -0.0149,0.4209 -0.02381,0.83048 -0.03151,1.23352 10e-4,-0.0724 0.0016,-0.14144 0.0026,-0.21446 -0.002,0.077 -0.0016,0.15003 -0.0036,0.22634 -0.003,0.13653 -0.0042,0.2684 -0.0062,0.40256 -0.003,0.18756 -0.0031,0.36933 -0.0052,0.55191 -8e-5,0.0137 -3.97e-4,0.0276 -5.03e-4,0.0413 -0.006,1.01261 0.004,1.9543 0.02685,2.76934 l 13.365083,8.93434 c 0.409655,-0.66171 0.857568,-1.31054 1.33739,-1.94459 z m 79.755869,2.05776 -23.23889,12.92117 c 0.28594,0.73063 0.53401,1.48113 0.74568,2.24844 l 24.58249,-10.87892 c -0.61174,-1.46709 -1.32189,-2.90074 -2.08928,-4.29069 z m 3.71554,9.24181 v 5.2e-4 l -25.65374,8.42429 c 0.12073,0.69767 0.21807,1.40319 0.28888,2.1146 l 25.9829,-6.17172 c -0.008,-0.18042 -0.0177,-0.36064 -0.03,-0.54105 -1.3e-4,-0.002 -3.9e-4,-0.004 -5e-4,-0.006 -0.005,-0.0805 -0.0127,-0.16087 -0.0191,-0.24133 -0.008,-0.10201 -0.0152,-0.20394 -0.0248,-0.30592 -0.033,-0.35206 -0.0749,-0.70475 -0.12454,-1.05627 -0.10467,-0.74112 -0.24505,-1.48067 -0.41804,-2.21692 h -5.3e-4 z m -99.012055,2.2102 c -0.193172,0.12227 -0.380497,0.24635 -0.561711,0.37259 v 5.2e-4 h -5.29e-4 c -0.362426,0.25266 -0.698976,0.51312 -1.005099,0.78186 -0.153088,0.13439 -0.298635,0.27086 -0.435636,0.40928 -0.650928,0.65784 -1.233541,1.37564 -1.756992,2.1394 l 28.848869,9.12451 c 0.03971,-0.69502 0.105807,-1.39013 0.198438,-2.08204 z m 99.011525,7.75922 -25.21087,3.21996 c 0.0147,0.7843 0.004,1.57036 -0.0315,2.35386 l 23.14226,-0.73019 c 0.89622,-1.55016 1.62483,-3.16402 2.10116,-4.84363 h -5e-4 z m -105.401821,1.47329 c -0.540041,1.67152 -0.92964,3.4089 -1.207162,5.13923 l 32.815027,2.96881 c -0.08009,-0.6781 -0.132106,-1.36271 -0.156554,-2.05156 z m 79.922231,6.92258 c -0.097,0.80954 -0.21756,1.61081 -0.3607,2.39933 l 16.58144,3.09491 c 0.72255,-0.76431 1.44769,-1.55191 2.16212,-2.358 0.42886,-0.48363 0.85434,-0.97224 1.27074,-1.47123 z m -47.928841,3.47886 -33.706991,0.87178 c 0.02371,1.68315 0.187193,3.37094 0.462492,5.04775 l 33.724056,-4.11292 c -0.185605,-0.59113 -0.344488,-1.19464 -0.479557,-1.80661 z m 1.178216,3.71966 -33.152503,7.67602 c 0.421507,1.42454 0.901462,2.82706 1.421632,4.19665 l 32.390768,-10.43296 c -0.235955,-0.47503 -0.457703,-0.95491 -0.659897,-1.43971 z m 1.535297,3.05563 -31.159317,13.57798 c 0.712497,1.40683 1.493652,2.78209 2.338864,4.11655 L 96.331221,178.8852 c -0.3107,-0.45806 -0.608648,-0.92329 -0.888339,-1.39682 z m 40.716918,2.84582 c -0.42403,0.6413 -0.87609,1.2631 -1.35496,1.85984 l 19.47995,10.30118 v 5.2e-4 h 0.001 c -0.002,-0.0418 -0.005,-0.0834 -0.008,-0.12506 -0.0966,-1.60643 -0.35925,-3.19825 -0.76895,-4.70876 -0.002,-0.006 -0.004,-0.0114 -0.005,-0.017 z m -38.630202,0.18501 -27.495499,19.39416 c 0.266541,0.32541 0.53848,0.64594 0.812879,0.96377 0.005,0.006 0.01048,0.0118 0.01497,0.0176 0.43188,0.49973 0.872543,0.99048 1.325007,1.46864 0.420476,0.44437 0.850689,0.88157 1.28569,1.31517 l 25.199498,-21.80901 c -0.395155,-0.43821 -0.776631,-0.88855 -1.14255,-1.3503 z m 2.602412,2.8515 -22.208989,24.33237 c 1.291722,1.05759 2.628609,2.0623 4.006479,3.00446 l 19.51768,-26.16016 c -0.45019,-0.37693 -0.8885,-0.76979 -1.31517,-1.17667 z m 32.7887,0.90331 c -0.5856,0.56991 -1.19983,1.10245 -1.84073,1.59215 l 20.81787,17.21031 c 0.38952,-0.6854 0.74139,-1.38909 1.04748,-2.11149 0.35005,-0.82609 0.62534,-1.68801 0.83818,-2.57091 z m -29.87984,1.50895 -16.288412,27.86548 c 1.333711,0.71859 2.695919,1.37555 4.08297,1.96422 l 13.572802,-28.91968 c -0.46323,-0.2876 -0.92011,-0.59023 -1.36736,-0.91002 z m 25.64651,1.634 c -0.68866,0.37027 -1.40618,0.70109 -2.14355,0.99736 l 18.03353,22.79603 c 1.32717,-1.01884 2.58487,-2.14326 3.73414,-3.35742 0.004,-0.004 0.009,-0.008 0.0129,-0.0129 l -5e-4,-5.2e-4 z m -22.55419,0.25115 -10.254671,29.78423 c 1.520137,0.46853 3.064404,0.87226 4.625051,1.21285 l 7.26466,-30.24053 c -0.55195,-0.22733 -1.09686,-0.48166 -1.63504,-0.75655 z m 3.72485,1.49138 -3.67421,30.45758 c 0.44037,0.0527 0.8813,0.0999 1.32241,0.14314 0.009,8.9e-4 0.0183,0.001 0.0274,0.002 5.2e-4,5e-5 10e-4,4.7e-4 0.002,5.2e-4 0.53139,0.0518 1.06323,0.0952 1.59525,0.13332 0.11814,0.008 0.23633,0.0165 0.35452,0.0243 -0.0393,-0.003 -0.0786,-0.004 -0.11785,-0.006 0.0792,0.005 0.15851,0.01 0.23773,0.015 0.14023,0.009 0.2804,0.0178 0.42063,0.0258 0.35679,0.0205 0.71356,0.039 1.07022,0.0532 l 0.63873,-30.37231 c -0.63553,-0.13398 -1.26188,-0.29327 -1.87688,-0.47646 z m 14.20223,0.0925 c -0.65945,0.18256 -1.32953,0.33862 -2.00763,0.46767 l 13.49531,26.56943 c 1.43412,-0.5682 2.83175,-1.21319 4.18216,-1.94251 0.002,-9.8e-4 0.004,-0.002 0.006,-0.003 0.007,-0.004 0.0138,-0.007 0.0207,-0.0108 l -5.3e-4,-5.2e-4 z m -10.06658,0.7524 2.80088,29.97233 c 1.16904,-0.0569 2.34432,-0.139 3.52123,-0.24959 0.0461,-0.004 0.0923,-0.0101 0.13849,-0.0139 0.33861,-0.0325 0.67717,-0.0665 1.01594,-0.10387 6.7e-4,-8e-5 0.001,6e-5 0.002,0 l -5.56141,-29.45092 c -0.64225,-0.0282 -1.28222,-0.0794 -1.9172,-0.154 z m 5.88389,0.0357 c -0.58997,0.0617 -1.18253,0.10312 -1.77613,0.12558 l 8.55814,28.66388 c 1.37271,-0.26514 2.73513,-0.5761 4.07831,-0.94413 z"
           id="path2717"
           inkscape:connector-curvature="0" />
      </g>
      <g
         id="g2296">
        <g
           id="g1820">
          <circle
             r="13.658043"
             cy="165.1702"
             cx="115.20262"
             id="path897-6"
             style="opacity:1;vector-effect:none;fill:#000000;fill-opacity:1;fill-rule:nonzero;stroke:none;stroke-width:0.26458332;stroke-linecap:butt;stroke-linejoin:round;stroke-miterlimit:4;stroke-dasharray:none;stroke-dashoffset:9.19999981;stroke-opacity:1;paint-order:normal" />
          <circle
             r="13.658043"
             cy="161.48848"
             cx="115.08385"
             id="path897"
             style="opacity:1;vector-effect:none;fill:#483737;fill-opacity:1;fill-rule:nonzero;stroke:none;stroke-width:0.26458332;stroke-linecap:butt;stroke-linejoin:round;stroke-miterlimit:4;stroke-dasharray:none;stroke-dashoffset:9.19999981;stroke-opacity:1;paint-order:normal" />
        </g>
        <g
           id="g2237">
          <g
             id="g2029">
            <g
               aria-label="P"
               transform="matrix(0.82906039,-0.55741869,0.55456929,0.83332013,0,0)"
               style="font-style:normal;font-variant:normal;font-weight:normal;font-stretch:normal;font-size:6.72271109px;line-height:1.25;font-family:Ubuntu;-inkscape-font-specification:Ubuntu;text-align:center;letter-spacing:0px;word-spacing:0px;text-anchor:middle;fill:#000000;fill-opacity:1;stroke:#000000;stroke-width:0.16806778;stroke-opacity:0.5098038"
               id="text1672">
              <path
                 d="m 6.0401725,187.77916 q 0.9815158,0 1.5058873,0.37648 0.5310941,0.36974 0.5310941,1.10924 0,0.40337 -0.1478996,0.69244 -0.1411769,0.28236 -0.4168081,0.46387 -0.2689084,0.17479 -0.6588257,0.25546 -0.3899172,0.0807 -0.8806751,0.0807 H 5.4552966 v 1.72774 h -0.652103 v -4.59161 q 0.2756312,-0.0672 0.6117668,-0.0874 0.3428582,-0.0269 0.6252121,-0.0269 z m 0.053782,0.57143 q -0.4168081,0 -0.6386576,0.0202 v 1.82858 h 0.4907579 q 0.3361356,0 0.605044,-0.0403 0.2689085,-0.0471 0.4504217,-0.1479 0.1882359,-0.10756 0.2890765,-0.28907 0.1008407,-0.18152 0.1008407,-0.46387 0,-0.26891 -0.1075634,-0.4437 Q 7.1830337,188.63974 7.0015205,188.5389 6.82673,188.43134 6.5914351,188.391 6.3561402,188.3507 6.0939545,188.3507 Z"
                 style="font-style:normal;font-variant:normal;font-weight:normal;font-stretch:normal;font-family:Ubuntu;-inkscape-font-specification:Ubuntu;fill:#000000;fill-opacity:1;stroke:#000000;stroke-width:0.16806778;stroke-opacity:0.5098038"
                 id="path2079"
                 inkscape:connector-curvature="0" />
            </g>
            <g
               aria-label="P"
               transform="matrix(0.82345268,0.56566987,-0.57067938,0.82237132,0,0)"
               style="font-style:normal;font-variant:normal;font-weight:normal;font-stretch:normal;font-size:6.72271109px;line-height:1.25;font-family:Ubuntu;-inkscape-font-specification:Ubuntu;text-align:center;letter-spacing:0px;word-spacing:0px;text-anchor:middle;fill:#000000;fill-opacity:1;stroke:#000000;stroke-width:0.16806778;stroke-opacity:0.5098038"
               id="text1672-9">
              <path
                 d="m 187.07702,57.747555 q 0.98151,0 1.50588,0.376472 0.5311,0.369749 0.5311,1.109247 0,0.403363 -0.1479,0.69244 -0.14118,0.282354 -0.41681,0.463867 -0.26891,0.17479 -0.65883,0.255463 -0.38991,0.08067 -0.88067,0.08067 h -0.51765 v 1.727737 h -0.6521 v -4.591612 q 0.27563,-0.06723 0.61176,-0.0874 0.34286,-0.02689 0.62522,-0.02689 z m 0.0538,0.571431 q -0.41681,0 -0.63866,0.02017 v 1.828577 h 0.49076 q 0.33613,0 0.60504,-0.04034 0.26891,-0.04706 0.45042,-0.1479 0.18824,-0.107563 0.28908,-0.289076 0.10084,-0.181513 0.10084,-0.463867 0,-0.268909 -0.10756,-0.443699 -0.10084,-0.174791 -0.28236,-0.275631 -0.17479,-0.107564 -0.41008,-0.1479 -0.2353,-0.04034 -0.49748,-0.04034 z"
                 style="font-style:normal;font-variant:normal;font-weight:normal;font-stretch:normal;font-family:Ubuntu;-inkscape-font-specification:Ubuntu;fill:#000000;fill-opacity:1;stroke:#000000;stroke-width:0.16806778;stroke-opacity:0.5098038"
                 id="path2082"
                 inkscape:connector-curvature="0" />
            </g>
            <g
               aria-label="O"
               transform="matrix(0.97526865,-0.21658206,0.21237513,0.97819545,0,0)"
               style="font-style:normal;font-variant:normal;font-weight:normal;font-stretch:normal;font-size:6.72271109px;line-height:1.25;font-family:Ubuntu;-inkscape-font-specification:Ubuntu;text-align:center;letter-spacing:0px;word-spacing:0px;text-anchor:middle;fill:#000000;fill-opacity:1;stroke:#000000;stroke-width:0.16806778;stroke-opacity:0.5098038"
               id="text1672-96">
              <path
                 d="m 77.779445,174.953 q 0,-0.59832 0.17479,-1.05546 0.181513,-0.45715 0.484035,-0.75967 0.309245,-0.30925 0.712608,-0.46387 0.410085,-0.15462 0.867229,-0.15462 0.450422,0 0.847062,0.15462 0.403363,0.15462 0.705885,0.46387 0.302522,0.30252 0.477312,0.75967 0.181513,0.45714 0.181513,1.05546 0,0.59832 -0.181513,1.05547 -0.17479,0.45714 -0.477312,0.76639 -0.302522,0.30252 -0.705885,0.45714 -0.39664,0.15462 -0.847062,0.15462 -0.457144,0 -0.867229,-0.15462 -0.403363,-0.15462 -0.712608,-0.45714 -0.302522,-0.30925 -0.484035,-0.76639 -0.17479,-0.45715 -0.17479,-1.05547 z m 0.685716,0 q 0,0.42353 0.107564,0.77311 0.107563,0.34286 0.302522,0.58488 0.201681,0.24202 0.484035,0.37647 0.289076,0.12773 0.64538,0.12773 0.356304,0 0.638658,-0.12773 0.282353,-0.13445 0.477312,-0.37647 0.201681,-0.24202 0.309245,-0.58488 0.107563,-0.34958 0.107563,-0.77311 0,-0.42353 -0.107563,-0.76639 -0.107564,-0.34958 -0.309245,-0.5916 -0.194959,-0.24201 -0.477312,-0.36975 -0.282354,-0.13445 -0.638658,-0.13445 -0.356304,0 -0.64538,0.13445 -0.282354,0.12774 -0.484035,0.36975 -0.194959,0.24202 -0.302522,0.5916 -0.107564,0.34286 -0.107564,0.76639 z"
                 style="font-style:normal;font-variant:normal;font-weight:normal;font-stretch:normal;font-family:Ubuntu;-inkscape-font-specification:Ubuntu;fill:#000000;fill-opacity:1;stroke:#000000;stroke-width:0.16806778;stroke-opacity:0.5098038"
                 id="path2085"
                 inkscape:connector-curvature="0" />
            </g>
            <g
               aria-label="P"
               transform="matrix(0.430296,0.90161082,-0.90540849,0.42685478,0,0)"
               style="font-style:normal;font-variant:normal;font-weight:normal;font-stretch:normal;font-size:6.72271109px;line-height:1.25;font-family:Ubuntu;-inkscape-font-specification:Ubuntu;text-align:center;letter-spacing:0px;word-spacing:0px;text-anchor:middle;fill:#000000;fill-opacity:1;stroke:#000000;stroke-width:0.16806778;stroke-opacity:0.5098038"
               id="text1672-9-3">
              <path
                 d="m 195.53237,-44.820449 q 0.98151,0 1.50589,0.376472 0.53109,0.369749 0.53109,1.109247 0,0.403363 -0.1479,0.692439 -0.14118,0.282354 -0.41681,0.463867 -0.26891,0.174791 -0.65882,0.255463 -0.38992,0.08067 -0.88068,0.08067 h -0.51765 v 1.727736 h -0.6521 v -4.591611 q 0.27563,-0.06723 0.61177,-0.0874 0.34286,-0.02689 0.62521,-0.02689 z m 0.0538,0.57143 q -0.41681,0 -0.63866,0.02017 v 1.828578 h 0.49076 q 0.33614,0 0.60505,-0.04034 0.2689,-0.04706 0.45042,-0.147899 0.18823,-0.107564 0.28907,-0.289077 0.10084,-0.181513 0.10084,-0.463867 0,-0.268908 -0.10756,-0.443699 -0.10084,-0.17479 -0.28235,-0.275631 -0.17479,-0.107563 -0.41009,-0.1479 -0.23529,-0.04034 -0.49748,-0.04034 z"
                 style="font-style:normal;font-variant:normal;font-weight:normal;font-stretch:normal;font-family:Ubuntu;-inkscape-font-specification:Ubuntu;fill:#000000;fill-opacity:1;stroke:#000000;stroke-width:0.16806778;stroke-opacity:0.5098038"
                 id="path2088"
                 inkscape:connector-curvature="0" />
            </g>
            <g
               aria-label="Y"
               transform="matrix(-0.07815813,0.99596588,-0.99753414,-0.08303716,0,0)"
               style="font-style:normal;font-variant:normal;font-weight:normal;font-stretch:normal;font-size:6.72271109px;line-height:1.25;font-family:Ubuntu;-inkscape-font-specification:Ubuntu;text-align:center;letter-spacing:0px;word-spacing:0px;text-anchor:middle;fill:#000000;fill-opacity:1;stroke:#000000;stroke-width:0.16806778;stroke-opacity:0.5098038"
               id="text1672-9-3-0">
              <path
                 d="m 150.83915,-133.24983 v -1.86892 q -0.46387,-0.71933 -0.87396,-1.41849 -0.41008,-0.69916 -0.77311,-1.37143 h 0.76639 q 0.25546,0.55126 0.57143,1.12269 0.31597,0.56471 0.6521,1.08908 0.32942,-0.52437 0.64538,-1.08908 0.31597,-0.57143 0.57816,-1.12269 h 0.72605 q -0.36303,0.67227 -0.77311,1.37143 -0.41009,0.69244 -0.86723,1.40505 v 1.88236 z"
                 style="font-style:normal;font-variant:normal;font-weight:normal;font-stretch:normal;font-family:Ubuntu;-inkscape-font-specification:Ubuntu;fill:#000000;fill-opacity:1;stroke:#000000;stroke-width:0.16806778;stroke-opacity:0.5098038"
                 id="path2091"
                 inkscape:connector-curvature="0" />
            </g>
            <g
               aria-label="A"
               transform="matrix(-0.16915641,0.98460288,-0.98571714,-0.17415869,0,0)"
               style="font-style:normal;font-variant:normal;font-weight:normal;font-stretch:normal;font-size:6.72271109px;line-height:1.25;font-family:Ubuntu;-inkscape-font-specification:Ubuntu;text-align:center;letter-spacing:0px;word-spacing:0px;text-anchor:middle;fill:#000000;fill-opacity:1;stroke:#000000;stroke-width:0.16806778;stroke-opacity:0.5098038"
               id="text1672-9-3-0-6">
              <path
                 d="m 140.72567,-130.31749 q -0.11429,-0.30252 -0.21513,-0.5916 -0.10084,-0.2958 -0.2084,-0.59832 h -2.11093 l -0.42353,1.18992 h -0.679 q 0.26891,-0.7395 0.50421,-1.36471 0.23529,-0.63193 0.45714,-1.19664 0.22857,-0.56471 0.45042,-1.07564 0.22185,-0.51765 0.46387,-1.02185 h 0.59832 q 0.24202,0.5042 0.46387,1.02185 0.22185,0.51093 0.4437,1.07564 0.22857,0.56471 0.46386,1.19664 0.2353,0.62521 0.50421,1.36471 z m -0.61177,-1.72774 q -0.21512,-0.58487 -0.43025,-1.12941 -0.20841,-0.55126 -0.43698,-1.05547 -0.23529,0.50421 -0.45042,1.05547 -0.2084,0.54454 -0.41681,1.12941 z"
                 style="font-style:normal;font-variant:normal;font-weight:normal;font-stretch:normal;font-family:Ubuntu;-inkscape-font-specification:Ubuntu;fill:#000000;fill-opacity:1;stroke:#000000;stroke-width:0.16806778;stroke-opacity:0.5098038"
                 id="path2094"
                 inkscape:connector-curvature="0" />
            </g>
            <g
               aria-label="P"
               transform="matrix(0.32038955,0.94625962,-0.94962261,0.31652242,0,0)"
               style="font-style:normal;font-variant:normal;font-weight:normal;font-stretch:normal;font-size:6.72271109px;line-height:1.25;font-family:Ubuntu;-inkscape-font-specification:Ubuntu;text-align:center;letter-spacing:0px;word-spacing:0px;text-anchor:middle;fill:#000000;fill-opacity:1;stroke:#000000;stroke-width:0.16806778;stroke-opacity:0.5098038"
               id="text1672-9-3-0-4">
              <path
                 d="m 189.82836,-51.574367 q 0.98151,0 1.50589,0.376472 0.53109,0.369749 0.53109,1.109247 0,0.403363 -0.1479,0.692439 -0.14118,0.282354 -0.41681,0.463867 -0.26891,0.174791 -0.65882,0.255463 -0.38992,0.08067 -0.88068,0.08067 h -0.51765 v 1.727737 h -0.6521 v -4.591612 q 0.27563,-0.06723 0.61177,-0.0874 0.34286,-0.02689 0.62521,-0.02689 z m 0.0538,0.57143 q -0.41681,0 -0.63866,0.02017 v 1.828577 h 0.49076 q 0.33614,0 0.60505,-0.04034 0.2689,-0.04706 0.45042,-0.1479 0.18823,-0.107563 0.28907,-0.289076 0.10084,-0.181514 0.10084,-0.463868 0,-0.268908 -0.10756,-0.443698 -0.10084,-0.174791 -0.28235,-0.275632 -0.17479,-0.107563 -0.41009,-0.147899 -0.23529,-0.04034 -0.49748,-0.04034 z"
                 style="font-style:normal;font-variant:normal;font-weight:normal;font-stretch:normal;font-family:Ubuntu;-inkscape-font-specification:Ubuntu;fill:#000000;fill-opacity:1;stroke:#000000;stroke-width:0.16806778;stroke-opacity:0.5098038"
                 id="path2097"
                 inkscape:connector-curvature="0" />
            </g>
            <g
               aria-label="P"
               transform="matrix(0.76725682,0.63982319,-0.64471036,0.76571411,0,0)"
               style="font-style:normal;font-variant:normal;font-weight:normal;font-stretch:normal;font-size:6.72271109px;line-height:1.25;font-family:Ubuntu;-inkscape-font-specification:Ubuntu;text-align:center;letter-spacing:0px;word-spacing:0px;text-anchor:middle;fill:#000000;fill-opacity:1;stroke:#000000;stroke-width:0.16806778;stroke-opacity:0.5098038"
               id="text1672-9-3-0-0">
              <path
                 d="m 192.4271,55.83915 q 0.98151,0 1.50589,0.376472 0.53109,0.369749 0.53109,1.109247 0,0.403363 -0.1479,0.692439 -0.14118,0.282354 -0.41681,0.463867 -0.26891,0.174791 -0.65882,0.255463 -0.38992,0.08067 -0.88068,0.08067 h -0.51765 v 1.727737 h -0.6521 v -4.591612 q 0.27563,-0.06723 0.61177,-0.0874 0.34285,-0.02689 0.62521,-0.02689 z m 0.0538,0.57143 q -0.41681,0 -0.63866,0.02017 v 1.828577 h 0.49076 q 0.33614,0 0.60504,-0.04034 0.26891,-0.04706 0.45043,-0.1479 0.18823,-0.107563 0.28907,-0.289076 0.10084,-0.181514 0.10084,-0.463868 0,-0.268908 -0.10756,-0.443698 -0.10084,-0.174791 -0.28235,-0.275632 -0.17479,-0.107563 -0.41009,-0.147899 -0.23529,-0.04034 -0.49748,-0.04034 z"
                 style="font-style:normal;font-variant:normal;font-weight:normal;font-stretch:normal;font-family:Ubuntu;-inkscape-font-specification:Ubuntu;fill:#000000;fill-opacity:1;stroke:#000000;stroke-width:0.16806778;stroke-opacity:0.5098038"
                 id="path2100"
                 inkscape:connector-curvature="0" />
            </g>
            <g
               aria-label="E"
               transform="matrix(0.99845585,0.03380384,-0.03860833,1.0002394,0,0)"
               style="font-style:normal;font-variant:normal;font-weight:normal;font-stretch:normal;font-size:6.72271109px;line-height:1.25;font-family:Ubuntu;-inkscape-font-specification:Ubuntu;text-align:center;letter-spacing:0px;word-spacing:0px;text-anchor:middle;fill:#000000;fill-opacity:1;stroke:#000000;stroke-width:0.16806778;stroke-opacity:0.5098038"
               id="text1672-9-3-0-62">
              <path
                 d="m 120.01391,167.87328 v -4.65884 h 2.84371 v 0.55798 h -2.19161 v 1.38488 h 1.94959 v 0.54454 h -1.94959 v 1.61345 h 2.35967 v 0.55799 z"
                 style="font-style:normal;font-variant:normal;font-weight:normal;font-stretch:normal;font-family:Ubuntu;-inkscape-font-specification:Ubuntu;fill:#000000;fill-opacity:1;stroke:#000000;stroke-width:0.16806778;stroke-opacity:0.5098038"
                 id="path2103"
                 inkscape:connector-curvature="0" />
            </g>
            <g
               aria-label="A"
               transform="matrix(0.85554132,-0.51585442,0.51279841,0.85965535,0,0)"
               style="font-style:normal;font-variant:normal;font-weight:normal;font-stretch:normal;font-size:6.72271109px;line-height:1.25;font-family:Ubuntu;-inkscape-font-specification:Ubuntu;text-align:center;letter-spacing:0px;word-spacing:0px;text-anchor:middle;fill:#000000;fill-opacity:1;stroke:#000000;stroke-width:0.16806778;stroke-opacity:0.5098038"
               id="text1672-9-3-0-5">
              <path
                 d="m 17.502019,208.27631 q -0.114286,-0.30253 -0.215127,-0.5916 -0.10084,-0.2958 -0.208404,-0.59832 h -2.110931 l -0.423531,1.18992 h -0.678993 q 0.268908,-0.7395 0.504203,-1.36471 0.235295,-0.63194 0.457144,-1.19665 0.228572,-0.5647 0.450422,-1.07563 0.221849,-0.51765 0.463867,-1.02185 h 0.598321 q 0.242018,0.5042 0.463867,1.02185 0.22185,0.51093 0.443699,1.07563 0.228572,0.56471 0.463867,1.19665 0.235295,0.62521 0.504204,1.36471 z m -0.611766,-1.72774 q -0.215127,-0.58488 -0.430254,-1.12942 -0.208404,-0.55126 -0.436976,-1.05546 -0.235295,0.5042 -0.450422,1.05546 -0.208404,0.54454 -0.416808,1.12942 z"
                 style="font-style:normal;font-variant:normal;font-weight:normal;font-stretch:normal;font-family:Ubuntu;-inkscape-font-specification:Ubuntu;fill:#000000;fill-opacity:1;stroke:#000000;stroke-width:0.16806778;stroke-opacity:0.5098038"
                 id="path2106"
                 inkscape:connector-curvature="0" />
            </g>
            <g
               aria-label="L"
               transform="matrix(0.56194699,-0.82599777,0.82493902,0.56696132,0,0)"
               style="font-style:normal;font-variant:normal;font-weight:normal;font-stretch:normal;font-size:6.72271109px;line-height:1.25;font-family:Ubuntu;-inkscape-font-specification:Ubuntu;text-align:center;letter-spacing:0px;word-spacing:0px;text-anchor:middle;fill:#000000;fill-opacity:1;stroke:#000000;stroke-width:0.16806778;stroke-opacity:0.5098038"
               id="text1672-9-3-0-5-2">
              <path
                 d="m -66.528086,195.91948 v 0.56471 h -2.803371 v -4.65884 h 0.652103 v 4.09413 z"
                 style="font-style:normal;font-variant:normal;font-weight:normal;font-stretch:normal;font-family:Ubuntu;-inkscape-font-specification:Ubuntu;fill:#000000;fill-opacity:1;stroke:#000000;stroke-width:0.16806778;stroke-opacity:0.5098038"
                 id="path2109"
                 inkscape:connector-curvature="0" />
            </g>
          </g>
          <g
             transform="translate(19.153219,-6.818014)"
             style="fill:#483737;fill-opacity:1;stroke:#483737"
             id="g1943">
            <g
               aria-label="P"
               transform="matrix(0.82906039,-0.55741869,0.55456929,0.83332013,0,0)"
               style="font-style:normal;font-variant:normal;font-weight:normal;font-stretch:normal;font-size:6.72271109px;line-height:1.25;font-family:Ubuntu;-inkscape-font-specification:Ubuntu;text-align:center;letter-spacing:0px;word-spacing:0px;text-anchor:middle;display:inline;fill:#483737;fill-opacity:1;stroke:#483737;stroke-width:0.16806778;stroke-opacity:0.5098038"
               id="text1672-0">
              <path
                 d="m -13.749405,182.25179 q 0.981515,0 1.505887,0.37647 0.531094,0.36975 0.531094,1.10925 0,0.40336 -0.1479,0.69244 -0.141177,0.28235 -0.416808,0.46387 -0.268908,0.17479 -0.658825,0.25546 -0.389918,0.0807 -0.880676,0.0807 h -0.517648 v 1.72774 h -0.652103 v -4.59161 q 0.275631,-0.0672 0.611766,-0.0874 0.342859,-0.0269 0.625213,-0.0269 z m 0.05378,0.57143 q -0.416808,0 -0.638657,0.0202 v 1.82858 h 0.490758 q 0.336135,0 0.605044,-0.0403 0.268908,-0.0471 0.450421,-0.1479 0.188236,-0.10756 0.289077,-0.28908 0.10084,-0.18151 0.10084,-0.46386 0,-0.26891 -0.107563,-0.4437 -0.100841,-0.17479 -0.282354,-0.27563 -0.17479,-0.10757 -0.410085,-0.1479 -0.235295,-0.0403 -0.497481,-0.0403 z"
                 style="font-style:normal;font-variant:normal;font-weight:normal;font-stretch:normal;font-family:Ubuntu;-inkscape-font-specification:Ubuntu;fill:#483737;fill-opacity:1;stroke:#483737;stroke-width:0.16806778;stroke-opacity:0.5098038"
                 id="path2112"
                 inkscape:connector-curvature="0" />
            </g>
            <g
               aria-label="P"
               transform="matrix(0.82345268,0.56566988,-0.57067937,0.82237133,0,0)"
               style="font-style:normal;font-variant:normal;font-weight:normal;font-stretch:normal;font-size:6.72271109px;line-height:1.25;font-family:Ubuntu;-inkscape-font-specification:Ubuntu;text-align:center;letter-spacing:0px;word-spacing:0px;text-anchor:middle;display:inline;fill:#483737;fill-opacity:1;stroke:#483737;stroke-width:0.16806778;stroke-opacity:0.5098038"
               id="text1672-9-7">
              <path
                 d="m 174.73037,74.052998 q 0.98151,0 1.50588,0.376472 0.5311,0.369749 0.5311,1.109247 0,0.403363 -0.1479,0.69244 -0.14118,0.282353 -0.41681,0.463867 -0.26891,0.17479 -0.65882,0.255463 -0.38992,0.08067 -0.88068,0.08067 h -0.51765 v 1.727737 h -0.6521 v -4.591612 q 0.27563,-0.06723 0.61176,-0.0874 0.34286,-0.02689 0.62522,-0.02689 z m 0.0538,0.571431 q -0.41681,0 -0.63866,0.02017 v 1.828577 h 0.49076 q 0.33613,0 0.60504,-0.04034 0.26891,-0.04706 0.45042,-0.1479 0.18824,-0.107563 0.28908,-0.289076 0.10084,-0.181514 0.10084,-0.463867 0,-0.268909 -0.10756,-0.443699 -0.10084,-0.174791 -0.28236,-0.275632 -0.17479,-0.107563 -0.41008,-0.147899 -0.2353,-0.04034 -0.49748,-0.04034 z"
                 style="font-style:normal;font-variant:normal;font-weight:normal;font-stretch:normal;font-family:Ubuntu;-inkscape-font-specification:Ubuntu;fill:#483737;fill-opacity:1;stroke:#483737;stroke-width:0.16806778;stroke-opacity:0.5098038"
                 id="path2115"
                 inkscape:connector-curvature="0" />
            </g>
            <g
               aria-label="O"
               transform="matrix(0.97526864,-0.21658206,0.21237513,0.97819546,0,0)"
               style="font-style:normal;font-variant:normal;font-weight:normal;font-stretch:normal;font-size:6.72271109px;line-height:1.25;font-family:Ubuntu;-inkscape-font-specification:Ubuntu;text-align:center;letter-spacing:0px;word-spacing:0px;text-anchor:middle;display:inline;fill:#483737;fill-opacity:1;stroke:#483737;stroke-width:0.16806778;stroke-opacity:0.5098038"
               id="text1672-96-1">
              <path
                 d="m 57.367442,177.0018 q 0,-0.59832 0.174791,-1.05547 0.181513,-0.45714 0.484035,-0.75966 0.309244,-0.30925 0.712607,-0.46387 0.410085,-0.15462 0.86723,-0.15462 0.450421,0 0.847061,0.15462 0.403363,0.15462 0.705885,0.46387 0.302522,0.30252 0.477313,0.75966 0.181513,0.45715 0.181513,1.05547 0,0.59832 -0.181513,1.05546 -0.174791,0.45715 -0.477313,0.76639 -0.302522,0.30253 -0.705885,0.45715 -0.39664,0.15462 -0.847061,0.15462 -0.457145,0 -0.86723,-0.15462 -0.403363,-0.15462 -0.712607,-0.45715 -0.302522,-0.30924 -0.484035,-0.76639 -0.174791,-0.45714 -0.174791,-1.05546 z m 0.685717,0 q 0,0.42353 0.107563,0.77311 0.107563,0.34286 0.302522,0.58488 0.201681,0.24201 0.484035,0.37647 0.289077,0.12773 0.64538,0.12773 0.356304,0 0.638658,-0.12773 0.282354,-0.13446 0.477312,-0.37647 0.201682,-0.24202 0.309245,-0.58488 0.107564,-0.34958 0.107564,-0.77311 0,-0.42353 -0.107564,-0.76639 -0.107563,-0.34958 -0.309245,-0.5916 -0.194958,-0.24202 -0.477312,-0.36975 -0.282354,-0.13445 -0.638658,-0.13445 -0.356303,0 -0.64538,0.13445 -0.282354,0.12773 -0.484035,0.36975 -0.194959,0.24202 -0.302522,0.5916 -0.107563,0.34286 -0.107563,0.76639 z"
                 style="font-style:normal;font-variant:normal;font-weight:normal;font-stretch:normal;font-family:Ubuntu;-inkscape-font-specification:Ubuntu;fill:#483737;fill-opacity:1;stroke:#483737;stroke-width:0.16806778;stroke-opacity:0.5098038"
                 id="path2118"
                 inkscape:connector-curvature="0" />
            </g>
            <g
               aria-label="P"
               transform="matrix(0.43029601,0.90161082,-0.90540849,0.42685478,0,0)"
               style="font-style:normal;font-variant:normal;font-weight:normal;font-stretch:normal;font-size:6.72271109px;line-height:1.25;font-family:Ubuntu;-inkscape-font-specification:Ubuntu;text-align:center;letter-spacing:0px;word-spacing:0px;text-anchor:middle;display:inline;fill:#483737;fill-opacity:1;stroke:#483737;stroke-width:0.16806778;stroke-opacity:0.5098038"
               id="text1672-9-3-2">
              <path
                 d="m 193.03786,-24.499572 q 0.98152,0 1.50589,0.376472 0.53109,0.369749 0.53109,1.109247 0,0.403363 -0.1479,0.692439 -0.14117,0.282354 -0.4168,0.463867 -0.26891,0.174791 -0.65883,0.255463 -0.38992,0.08067 -0.88067,0.08067 h -0.51765 v 1.727737 h -0.65211 v -4.591612 q 0.27563,-0.06723 0.61177,-0.0874 0.34286,-0.02689 0.62521,-0.02689 z m 0.0538,0.57143 q -0.4168,0 -0.63865,0.02017 v 1.828578 h 0.49075 q 0.33614,0 0.60505,-0.04034 0.26891,-0.04706 0.45042,-0.147899 0.18824,-0.107564 0.28908,-0.289077 0.10084,-0.181513 0.10084,-0.463867 0,-0.268908 -0.10757,-0.443699 -0.10084,-0.17479 -0.28235,-0.275631 -0.17479,-0.107563 -0.41009,-0.1479 -0.23529,-0.04034 -0.49748,-0.04034 z"
                 style="font-style:normal;font-variant:normal;font-weight:normal;font-stretch:normal;font-family:Ubuntu;-inkscape-font-specification:Ubuntu;fill:#483737;fill-opacity:1;stroke:#483737;stroke-width:0.16806778;stroke-opacity:0.5098038"
                 id="path2121"
                 inkscape:connector-curvature="0" />
            </g>
            <g
               aria-label="Y"
               transform="matrix(-0.07815813,0.99596588,-0.99753414,-0.08303716,0,0)"
               style="font-style:normal;font-variant:normal;font-weight:normal;font-stretch:normal;font-size:6.72271109px;line-height:1.25;font-family:Ubuntu;-inkscape-font-specification:Ubuntu;text-align:center;letter-spacing:0px;word-spacing:0px;text-anchor:middle;display:inline;fill:#483737;fill-opacity:1;stroke:#483737;stroke-width:0.16806778;stroke-opacity:0.5098038"
               id="text1672-9-3-0-59">
              <path
                 d="m 158.86521,-114.35848 v -1.86892 q -0.46387,-0.71933 -0.87395,-1.41849 -0.41009,-0.69916 -0.77312,-1.37143 h 0.76639 q 0.25547,0.55126 0.57143,1.12269 0.31597,0.56471 0.65211,1.08908 0.32941,-0.52437 0.64538,-1.08908 0.31596,-0.57143 0.57815,-1.12269 h 0.72605 q -0.36302,0.67227 -0.77311,1.37143 -0.41008,0.69244 -0.86723,1.40505 v 1.88236 z"
                 style="font-style:normal;font-variant:normal;font-weight:normal;font-stretch:normal;font-family:Ubuntu;-inkscape-font-specification:Ubuntu;fill:#483737;fill-opacity:1;stroke:#483737;stroke-width:0.16806778;stroke-opacity:0.5098038"
                 id="path2124"
                 inkscape:connector-curvature="0" />
            </g>
            <g
               aria-label="A"
               transform="matrix(-0.16915641,0.98460288,-0.98571715,-0.17415869,0,0)"
               style="font-style:normal;font-variant:normal;font-weight:normal;font-stretch:normal;font-size:6.72271109px;line-height:1.25;font-family:Ubuntu;-inkscape-font-specification:Ubuntu;text-align:center;letter-spacing:0px;word-spacing:0px;text-anchor:middle;display:inline;fill:#483737;fill-opacity:1;stroke:#483737;stroke-width:0.16806778;stroke-opacity:0.5098038"
               id="text1672-9-3-0-6-1">
              <path
                 d="m 150.45014,-112.23208 q -0.11428,-0.30252 -0.21513,-0.5916 -0.10084,-0.2958 -0.2084,-0.59832 h -2.11093 l -0.42353,1.18992 h -0.679 q 0.26891,-0.7395 0.50421,-1.36471 0.23529,-0.63193 0.45714,-1.19664 0.22857,-0.56471 0.45042,-1.07564 0.22185,-0.51764 0.46387,-1.02185 h 0.59832 q 0.24202,0.50421 0.46387,1.02185 0.22185,0.51093 0.4437,1.07564 0.22857,0.56471 0.46387,1.19664 0.23529,0.62521 0.5042,1.36471 z m -0.61177,-1.72774 q -0.21512,-0.58487 -0.43025,-1.12941 -0.2084,-0.55126 -0.43698,-1.05547 -0.23529,0.50421 -0.45042,1.05547 -0.2084,0.54454 -0.4168,1.12941 z"
                 style="font-style:normal;font-variant:normal;font-weight:normal;font-stretch:normal;font-family:Ubuntu;-inkscape-font-specification:Ubuntu;fill:#483737;fill-opacity:1;stroke:#483737;stroke-width:0.16806778;stroke-opacity:0.5098038"
                 id="path2127"
                 inkscape:connector-curvature="0" />
            </g>
            <g
               aria-label="P"
               transform="matrix(0.32038954,0.94625962,-0.94962261,0.31652242,0,0)"
               style="font-style:normal;font-variant:normal;font-weight:normal;font-stretch:normal;font-size:6.72271109px;line-height:1.25;font-family:Ubuntu;-inkscape-font-specification:Ubuntu;text-align:center;letter-spacing:0px;word-spacing:0px;text-anchor:middle;display:inline;fill:#483737;fill-opacity:1;stroke:#483737;stroke-width:0.16806778;stroke-opacity:0.5098038"
               id="text1672-9-3-0-4-9">
              <path
                 d="m 189.76633,-31.090238 q 0.98152,0 1.50589,0.376472 0.53109,0.369749 0.53109,1.109247 0,0.403363 -0.1479,0.692439 -0.14117,0.282354 -0.4168,0.463867 -0.26891,0.174791 -0.65883,0.255463 -0.38992,0.08067 -0.88068,0.08067 h -0.51764 v 1.727737 h -0.65211 v -4.591612 q 0.27563,-0.06723 0.61177,-0.0874 0.34286,-0.02689 0.62521,-0.02689 z m 0.0538,0.57143 q -0.4168,0 -0.63865,0.02017 v 1.828577 h 0.49075 q 0.33614,0 0.60505,-0.04034 0.26891,-0.04706 0.45042,-0.1479 0.18824,-0.107563 0.28908,-0.289077 0.10084,-0.181513 0.10084,-0.463867 0,-0.268908 -0.10757,-0.443699 -0.10084,-0.17479 -0.28235,-0.275631 -0.17479,-0.107563 -0.41009,-0.147899 -0.23529,-0.04034 -0.49748,-0.04034 z"
                 style="font-style:normal;font-variant:normal;font-weight:normal;font-stretch:normal;font-family:Ubuntu;-inkscape-font-specification:Ubuntu;fill:#483737;fill-opacity:1;stroke:#483737;stroke-width:0.16806778;stroke-opacity:0.5098038"
                 id="path2130"
                 inkscape:connector-curvature="0" />
            </g>
            <g
               aria-label="P"
               transform="matrix(0.76725681,0.63982319,-0.64471036,0.76571411,0,0)"
               style="font-style:normal;font-variant:normal;font-weight:normal;font-stretch:normal;font-size:6.72271109px;line-height:1.25;font-family:Ubuntu;-inkscape-font-specification:Ubuntu;text-align:center;letter-spacing:0px;word-spacing:0px;text-anchor:middle;display:inline;fill:#483737;fill-opacity:1;stroke:#483737;stroke-width:0.16806778;stroke-opacity:0.5098038"
               id="text1672-9-3-0-0-0">
              <path
                 d="m 181.65934,73.227459 q 0.98151,0 1.50588,0.376472 0.5311,0.369749 0.5311,1.109248 0,0.403362 -0.1479,0.692439 -0.14118,0.282354 -0.41681,0.463867 -0.26891,0.17479 -0.65882,0.255463 -0.38992,0.08067 -0.88068,0.08067 h -0.51765 v 1.727737 h -0.6521 v -4.591611 q 0.27563,-0.06723 0.61177,-0.0874 0.34285,-0.02689 0.62521,-0.02689 z m 0.0538,0.571431 q -0.41681,0 -0.63866,0.02017 v 1.828577 h 0.49076 q 0.33614,0 0.60504,-0.04034 0.26891,-0.04706 0.45043,-0.147899 0.18823,-0.107564 0.28907,-0.289077 0.10084,-0.181513 0.10084,-0.463867 0,-0.268909 -0.10756,-0.443699 -0.10084,-0.174791 -0.28235,-0.275631 -0.1748,-0.107564 -0.41009,-0.1479 -0.2353,-0.04034 -0.49748,-0.04034 z"
                 style="font-style:normal;font-variant:normal;font-weight:normal;font-stretch:normal;font-family:Ubuntu;-inkscape-font-specification:Ubuntu;fill:#483737;fill-opacity:1;stroke:#483737;stroke-width:0.16806778;stroke-opacity:0.5098038"
                 id="path2133"
                 inkscape:connector-curvature="0" />
            </g>
            <g
               aria-label="E"
               transform="matrix(0.99845585,0.03380384,-0.03860833,1.0002394,0,0)"
               style="font-style:normal;font-variant:normal;font-weight:normal;font-stretch:normal;font-size:6.72271109px;line-height:1.25;font-family:Ubuntu;-inkscape-font-specification:Ubuntu;text-align:center;letter-spacing:0px;word-spacing:0px;text-anchor:middle;display:inline;fill:#483737;fill-opacity:1;stroke:#483737;stroke-width:0.16806778;stroke-opacity:0.5098038"
               id="text1672-9-3-0-62-5">
              <path
                 d="m 100.78523,174.94658 v -4.65884 h 2.84371 v 0.55799 h -2.1916 v 1.38487 h 1.94958 v 0.54454 h -1.94958 v 1.61345 h 2.35967 v 0.55799 z"
                 style="font-style:normal;font-variant:normal;font-weight:normal;font-stretch:normal;font-family:Ubuntu;-inkscape-font-specification:Ubuntu;fill:#483737;fill-opacity:1;stroke:#483737;stroke-width:0.16806778;stroke-opacity:0.5098038"
                 id="path2136"
                 inkscape:connector-curvature="0" />
            </g>
            <g
               aria-label="A"
               transform="matrix(0.85554132,-0.51585442,0.5127984,0.85965535,0,0)"
               style="font-style:normal;font-variant:normal;font-weight:normal;font-stretch:normal;font-size:6.72271109px;line-height:1.25;font-family:Ubuntu;-inkscape-font-specification:Ubuntu;text-align:center;letter-spacing:0px;word-spacing:0px;text-anchor:middle;display:inline;fill:#483737;fill-opacity:1;stroke:#483737;stroke-width:0.16806778;stroke-opacity:0.5098038"
               id="text1672-9-3-0-5-7">
              <path
                 d="m -2.5319747,203.72841 q -0.1142861,-0.30252 -0.2151268,-0.5916 -0.1008406,-0.2958 -0.208404,-0.59832 h -2.1109313 l -0.4235308,1.18992 h -0.6789938 q 0.2689084,-0.7395 0.5042033,-1.36471 0.2352949,-0.63194 0.4571444,-1.19664 0.2285722,-0.56471 0.4504216,-1.07564 0.2218495,-0.51765 0.4638671,-1.02185 h 0.5983213 q 0.2420176,0.5042 0.463867,1.02185 0.2218495,0.51093 0.443699,1.07564 0.2285721,0.5647 0.463867,1.19664 0.2352949,0.62521 0.5042034,1.36471 z m -0.6117667,-1.72774 q -0.2151268,-0.58487 -0.4302535,-1.12941 -0.2084041,-0.55127 -0.4369763,-1.05547 -0.2352948,0.5042 -0.4504216,1.05547 -0.208404,0.54454 -0.4168081,1.12941 z"
                 style="font-style:normal;font-variant:normal;font-weight:normal;font-stretch:normal;font-family:Ubuntu;-inkscape-font-specification:Ubuntu;fill:#483737;fill-opacity:1;stroke:#483737;stroke-width:0.16806778;stroke-opacity:0.5098038"
                 id="path2139"
                 inkscape:connector-curvature="0" />
            </g>
            <g
               aria-label="L"
               transform="matrix(0.56194698,-0.82599777,0.82493904,0.56696131,0,0)"
               style="font-style:normal;font-variant:normal;font-weight:normal;font-stretch:normal;font-size:6.72271109px;line-height:1.25;font-family:Ubuntu;-inkscape-font-specification:Ubuntu;text-align:center;letter-spacing:0px;word-spacing:0px;text-anchor:middle;display:inline;fill:#483737;fill-opacity:1;stroke:#483737;stroke-width:0.16806778;stroke-opacity:0.5098038"
               id="text1672-9-3-0-5-2-4">
              <path
                 d="m -82.868228,183.4461 v 0.5647 h -2.80337 v -4.65884 h 0.652103 v 4.09414 z"
                 style="font-style:normal;font-variant:normal;font-weight:normal;font-stretch:normal;font-family:Ubuntu;-inkscape-font-specification:Ubuntu;fill:#483737;fill-opacity:1;stroke:#483737;stroke-width:0.16806778;stroke-opacity:0.5098038"
                 id="path2142"
                 inkscape:connector-curvature="0" />
            </g>
          </g>
        </g>
      </g>
    </g>
  </g>
</svg>
